<svg fill="#dd6b20" height="100%" width="100%" xmlns="http://www.w3.org/2000/svg" viewBox="0 0 60 60">
  <path d="M33.85 24.19a5.423 5.423 0 001.58-3.85c0-1.45-.56-2.81-1.58-3.84A5.432 5.432 0 0030 14.91a5.427 5.427 0 00-5.43 5.43c0 1.46.57 2.82 1.59 3.85a.996.996 0 11-1.41 1.41 7.398 7.398 0 01-2.18-5.26c0-1.98.78-3.85 2.18-5.25 1.4-1.4 3.27-2.18 5.25-2.18 1.99 0 3.86.78 5.26 2.18 1.4 1.4 2.17 3.27 2.17 5.25 0 1.99-.77 3.86-2.17 5.26-.2.2-.45.29-.71.29a.96.96 0 01-.7-.29.996.996 0 010-1.41z"/>
  <path d="M19.15 31.2c-2.9-2.9-4.49-6.75-4.49-10.86 0-4.1 1.59-7.95 4.49-10.85C22.05 6.59 25.9 5 30 5c4.11 0 7.96 1.59 10.86 4.49 2.89 2.9 4.48 6.75 4.48 10.85 0 4.11-1.59 7.96-4.48 10.86-.39.39-1.03.39-1.42 0s-.39-1.03 0-1.42c2.52-2.51 3.9-5.87 3.9-9.44s-1.38-6.92-3.9-9.43A13.225 13.225 0 0030 7c-3.56 0-6.92 1.39-9.43 3.91-2.52 2.51-3.91 5.86-3.91 9.43s1.39 6.93 3.91 9.44c.39.39.39 1.02 0 1.42-.2.19-.45.29-.71.29s-.51-.1-.71-.29z"/>
  <path d="M36.65 28.4a.978.978 0 010-1.41c3.66-3.67 3.66-9.62 0-13.29A9.33 9.33 0 0030 10.96c-2.51 0-4.87.97-6.64 2.74a9.325 9.325 0 00-2.74 6.64c0 2.52.97 4.88 2.74 6.65a.996.996 0 11-1.41 1.41 11.314 11.314 0 01-3.33-8.06c0-3.04 1.18-5.9 3.33-8.05 2.15-2.15 5.01-3.33 8.05-3.33 3.05 0 5.91 1.18 8.06 3.33 4.44 4.44 4.44 11.67 0 16.11-.2.2-.45.29-.71.29a.96.96 0 01-.7-.29z"/>
  <path d="M48.41 54c0 .55-.45 1-1 1H12.59c-.55 0-1-.45-1-1 0-9.82 7.73-17.86 17.42-18.38V23.67a3.477 3.477 0 01-2.48-3.33c0-1.91 1.56-3.47 3.47-3.47a3.48 3.48 0 013.48 3.47c0 1.57-1.04 2.89-2.47 3.33v11.96c9.68.52 17.4 8.56 17.4 18.37z"/>
</svg>
